<?xml version="1.0" encoding="UTF-8"?>
<svg id="a" xmlns="http://www.w3.org/2000/svg" viewBox="0 0 357.86 72.01">
  <defs>
    <style>
      .b {
        fill: #fff;
        fill-rule: evenodd;
        stroke-width: 0px;
      }
    </style>
  </defs>
  <path class="b" d="m18.49,15.68h16.19V.04h-15.88C3.02-.39.45,2.2,0,19.67v4.42c-.19,15.64,3,20.06,14.65,19.73h2.89v12.51H.34v15.64h17.11c12.37,0,13.2-.22,16.29-3.99,2.06-3.45,2.47-5.72,2.78-16.28v-4.42c0-15.2-3.09-19.3-14.74-19.09h-3.3v-12.51h0Zm46.91,0h8.35V.04h-35.16v15.64h8.35v56.29h18.45V15.68h0Zm30.81,56.29h-18.45V14.71C77.96,1.98,80.33.04,96.32.04h7.53c15.98,0,18.35,1.83,18.56,14.67v57.26h-18.45v-15.2h-7.73v15.2h-.02Zm7.73-31.16v-18.98c0-4.64-1.24-6.69-3.92-6.69s-3.81,2.16-3.81,6.69v18.98s7.73,0,7.73,0Zm69.8-26.85c-.52-12.4-2.78-14.23-16.5-13.91h-28.15v71.93h18.45v-28.14h2.37c3.92.11,5.46,1.94,5.36,6.47v9.6c0,5.07.41,8.95,1.44,12.08h18.45c-.82-3.02-1.44-7.33-1.44-12.08v-11.11c.21-8.09-2.37-11.54-10.1-13.69,7.73-.65,10.41-5.18,10.1-16.5v-4.64h.02Zm-18.35,8.09c0,5.07-.93,6.15-5.26,6.15h-2.58v-12.51h2.58c3.92,0,5.26,1.62,5.26,6.36Zm68.99,33.97c.21,14.34-1.96,16.28-18.25,15.96h-7.63c-17.53.22-18.76-1.08-18.56-19.41l-.1-5.61v-21.57C180.02,1.98,181.57-.07,198.48.04h25.88v17.68c-2.17-1.08-7.32-1.83-13.4-2.05h-6.49c-5.67,0-6.19.54-6.19,6.58v25.56c-.1,7.55.41,8.41,4.64,8.52h2.99v-17.36c0-2.91-.52-5.39-1.44-8.09h19.9v25.13h0Zm6.27,15.96h18.45v-15.2h7.73v15.2h18.45V14.71c-.21-12.83-2.58-14.67-18.56-14.67h-7.53c-15.98,0-18.35,1.94-18.56,14.67v57.26h.02Zm26.19-50.14v18.98h-7.73v-18.98c0-4.53,1.13-6.69,3.81-6.69s3.92,2.05,3.92,6.69ZM317.35.04l-15.36,56.29h16.5l-2.06,15.64h-36.91l15.57-56.29h-15.36L281.88.04h35.47Zm23.5,15.64h17.01V.04h-17.22c-16.08-.22-17.83,1.94-18.25,23.08v22.97c-.1,10.57.72,18.33,2.16,20.81,2.78,4.64,3.82,4.96,16.08,5.07h17.22v-15.64h-17.01v-12.51h17.01v-15.64h-17.01v-12.51h.01Z"/>
</svg>